; NON-PLATED HOLES START AT T1
; THROUGH (PLATED) HOLES START AT T100
M48
INCH
T1C0.125000
T2C0.127559
T100C0.028000
T101C0.040000
T102C0.015748
T103C0.039370
T104C0.035000
T105C0.055118
T106C0.038000
%
T1
X002225Y002259
X002225Y043259
X057225Y043259
X057225Y002259
T2
X026224Y022719
X055345Y022729
T100
X004225Y041259
X004225Y032559
X006595Y041259
X009755Y041259
X008175Y041259
X008965Y041259
X005015Y041259
X005015Y032559
X009755Y032559
X007385Y041259
X010545Y032559
X005805Y032559
X006595Y032559
X005805Y041259
X008965Y032559
X010545Y041259
X007385Y032559
X003435Y032559
X003435Y041259
X008175Y032559
T101
X004225Y016259
X003603Y006259
X006603Y006259
X006225Y016259
X009225Y016259
X005225Y016259
X008225Y016259
X005225Y006259
X007225Y016259
X003225Y016259
X002225Y006259
T102
X047229Y015244
X002225Y031259
X002225Y030259
X044229Y015244
X023225Y010259
X033229Y014244
X025225Y008259
X004225Y030259
X005225Y030259
X042229Y030244
X026225Y006259
X002225Y021259
X039225Y014259
X014225Y035259
X008225Y014259
X045225Y030259
X011225Y025259
X038225Y016259
T103
X027225Y030259
X027225Y014259
X026225Y015259
X027225Y015259
X026225Y030259
X026225Y014259
X027225Y031259
X026225Y031259
T104
X009225Y019259
X018225Y028259
X005225Y019259
X016225Y012259
X021225Y028259
X010225Y019259
X020225Y028259
X020225Y010259
X005225Y028259
X014225Y019259
X011225Y028259
X020225Y011259
X008225Y028259
X016225Y010259
X013225Y028259
X020225Y012259
X007225Y028259
X003225Y028259
X017225Y019259
X019225Y028259
X011225Y019259
X021225Y019259
X004225Y028259
X013225Y019259
X006225Y028259
X019225Y019259
X017225Y028259
X014225Y028259
X016225Y019259
X004225Y019259
X022225Y028259
X020225Y019259
X003225Y019259
X018225Y019259
X016225Y028259
X015225Y019259
X022225Y019259
X006225Y019259
X008225Y019259
X009225Y028259
X016225Y011259
X012225Y028259
X012225Y019259
X015225Y028259
X007225Y019259
X010225Y028259
T105
X034213Y042305
X018225Y003259
X036225Y003259
X050225Y003259
X040213Y042305
X044225Y003259
X014225Y003259
X052225Y042259
X042225Y003259
X024225Y003259
X036213Y042305
X032225Y003259
X048225Y003259
X030225Y003259
X034225Y003259
X010225Y003259
X030225Y042259
X038213Y042305
X012225Y003259
X040225Y003259
X042213Y042305
X046225Y042259
X008225Y003259
X020225Y003259
X038225Y003259
X022225Y003259
X046225Y003259
X016225Y003259
X050225Y042259
X044213Y042305
X052225Y003259
X048225Y042259
X032225Y042259
T106
X050229Y009244
X043225Y006259
X047225Y039259
X033229Y009244
X051229Y036244
X040225Y006259
X032229Y036244
X051229Y009244
X038229Y009244
X037225Y006259
X038225Y006259
X036225Y006259
X039229Y036244
X037225Y039259
X046225Y006259
X045225Y006259
X041225Y006259
X039229Y009244
X041225Y039259
X042225Y006259
X043225Y039259
X033229Y036244
X045229Y009244
X026229Y009244
X044229Y009244
X038229Y036244
X050229Y036244
X047225Y006259
X039225Y039259
X040225Y039259
X045225Y039259
X044229Y036244
X027229Y009244
X026229Y036244
X044225Y039259
X039225Y006259
X036225Y039259
X046225Y039259
X032229Y009244
X044225Y006259
X042225Y039259
X045229Y036244
X027229Y036244
X038225Y039259
T00
M30
