G04 MADE WITH FRITZING*
G04 WWW.FRITZING.ORG*
G04 DOUBLE SIDED*
G04 HOLES PLATED*
G04 CONTOUR ON CENTER OF CONTOUR VECTOR*
%ASAXBY*%
%FSLAX23Y23*%
%MOIN*%
%OFA0B0*%
%SFA1.0B1.0*%
%ADD10C,0.085000*%
%ADD11C,0.088000*%
%ADD12C,0.049370*%
%ADD13C,0.137559*%
%ADD14C,0.135000*%
%ADD15C,0.090000*%
%ADD16C,0.086500*%
%ADD17C,0.078000*%
%ADD18C,0.088740*%
%ADD19C,0.104488*%
%ADD20R,0.090000X0.090000*%
%ADD21R,0.085000X0.085000*%
%ADD22R,0.078000X0.078000*%
%LNMASK1*%
G90*
G70*
G54D10*
X1623Y1026D03*
X2023Y1026D03*
G54D11*
X3923Y3926D03*
X3823Y3926D03*
X3723Y626D03*
X3623Y626D03*
X4523Y3926D03*
X4423Y3926D03*
X4723Y3926D03*
X4623Y3926D03*
X4323Y3926D03*
X4223Y3926D03*
X4723Y626D03*
X4623Y626D03*
X4523Y626D03*
X4423Y626D03*
X4323Y626D03*
X4223Y626D03*
X4123Y626D03*
X4023Y626D03*
X4123Y3926D03*
X4023Y3926D03*
X3923Y626D03*
X3823Y626D03*
X3723Y3926D03*
X3623Y3926D03*
G54D12*
X2323Y1026D03*
X2623Y626D03*
X223Y2126D03*
X1123Y2526D03*
X223Y3126D03*
X2523Y826D03*
X3323Y1424D03*
X4523Y3026D03*
X523Y3026D03*
X423Y3026D03*
X223Y3026D03*
X1423Y3526D03*
X4223Y3024D03*
X3823Y1626D03*
X823Y1426D03*
X3923Y1426D03*
X4423Y1524D03*
X4723Y1524D03*
G54D13*
X2622Y2272D03*
G54D14*
X223Y4326D03*
X5723Y4326D03*
X223Y226D03*
X5723Y226D03*
G54D13*
X5535Y2273D03*
G54D11*
X3323Y924D03*
X3223Y924D03*
X2723Y924D03*
X2623Y924D03*
X4523Y3624D03*
X4423Y3624D03*
X2723Y3624D03*
X2623Y3624D03*
X3923Y3624D03*
X3823Y3624D03*
X5123Y924D03*
X5023Y924D03*
X3323Y3624D03*
X3223Y3624D03*
X4523Y924D03*
X4423Y924D03*
X3923Y924D03*
X3823Y924D03*
X5123Y3624D03*
X5023Y3624D03*
G54D15*
X223Y626D03*
X360Y626D03*
X523Y626D03*
X660Y626D03*
G54D10*
X323Y1926D03*
X323Y2826D03*
X423Y1926D03*
X423Y2826D03*
X523Y1926D03*
X523Y2826D03*
X623Y1926D03*
X623Y2826D03*
X723Y1926D03*
X723Y2826D03*
X823Y1926D03*
X823Y2826D03*
X923Y1926D03*
X923Y2826D03*
X1023Y1926D03*
X1023Y2826D03*
X1123Y1926D03*
X1123Y2826D03*
X1223Y1926D03*
X1223Y2826D03*
X1323Y1926D03*
X1323Y2826D03*
X1423Y1926D03*
X1423Y2826D03*
X1523Y1926D03*
X1523Y2826D03*
X1623Y1926D03*
X1623Y2826D03*
X1723Y1926D03*
X1723Y2826D03*
X1823Y1926D03*
X1823Y2826D03*
X1923Y1926D03*
X1923Y2826D03*
X2023Y1926D03*
X2023Y2826D03*
X2123Y1926D03*
X2123Y2826D03*
X2223Y1926D03*
X2223Y2826D03*
G54D16*
X323Y1626D03*
X423Y1626D03*
X523Y1626D03*
X623Y1626D03*
X723Y1626D03*
X823Y1626D03*
X923Y1626D03*
G54D17*
X344Y3256D03*
X423Y3256D03*
X502Y3256D03*
X581Y3256D03*
X660Y3256D03*
X739Y3256D03*
X818Y3256D03*
X897Y3256D03*
X976Y3256D03*
X1055Y3256D03*
X1055Y4126D03*
X976Y4126D03*
X897Y4126D03*
X818Y4126D03*
X739Y4126D03*
X660Y4126D03*
X581Y4126D03*
X502Y4126D03*
X423Y4126D03*
X344Y4126D03*
G54D18*
X2723Y1526D03*
X2723Y1426D03*
X2623Y3026D03*
G54D19*
X5023Y4226D03*
X3821Y4231D03*
X5223Y4226D03*
X4021Y4231D03*
X4623Y4226D03*
X3421Y4231D03*
X3223Y4226D03*
X4421Y4231D03*
X4823Y4226D03*
X3621Y4231D03*
X3023Y4226D03*
X4221Y4231D03*
X1223Y326D03*
X1023Y326D03*
X4823Y326D03*
X3623Y326D03*
X4623Y326D03*
X1823Y326D03*
X2423Y326D03*
X3423Y326D03*
X5023Y326D03*
X3823Y326D03*
X1423Y326D03*
X2023Y326D03*
X3023Y326D03*
X4223Y326D03*
X5223Y326D03*
X4023Y326D03*
X823Y326D03*
X1623Y326D03*
X2223Y326D03*
X3223Y326D03*
X4423Y326D03*
G54D18*
X2623Y1526D03*
X2623Y1426D03*
X2623Y3126D03*
X2723Y3026D03*
X2723Y3126D03*
G54D10*
X1623Y1226D03*
X2023Y1226D03*
X1623Y1126D03*
X2023Y1126D03*
G54D20*
X223Y626D03*
X523Y626D03*
G54D21*
X323Y1926D03*
G54D22*
X344Y3256D03*
G04 End of Mask1*
M02*